{
  "accessors": [
    {
      "bufferView": 1,
      "componentType": 5126,
      "count": 1305,
      "max": [
        10.869901657104492,
        20.515811920166016,
        21.607927322387695
      ],
      "min": [
        0,
        0,
        0
      ],
      "type": "VEC3"
    },
    {
      "bufferView": 1,
      "byteOffset": 15660,
      "componentType": 5126,
      "count": 1305,
      "max": [
        0.99997234344482422,
        0.82736986875534058,
        0.72259700298309326
      ],
      "min": [
        -0.99992412328720093,
        -0.99980926513671875,
        -0.95374786853790283
      ],
      "type": "VEC3"
    },
    {
      "bufferView": 2,
      "componentType": 5126,
      "count": 1305,
      "max": [
        0.67858600616455078,
        0.99999725818634033,
        0.99355524778366089,
        1
      ],
      "min": [
        -0.66129153966903687,
        -0.99993062019348145,
        -0.99431502819061279,
        -1
      ],
      "type": "VEC4"
    },
    {
      "bufferView": 0,
      "componentType": 5125,
      "count": 4131,
      "max": [
        1304
      ],
      "min": [
        0
      ],
      "type": "SCALAR"
    }
  ],
  "asset": {
    "extras": {
      "author": "andonhh (https://sketchfab.com/andonhh)",
      "license": "CC-BY-4.0 (http://creativecommons.org/licenses/by/4.0/)",
      "source": "https://sketchfab.com/models/3f3dc7e486f74117a2516aff31066f51",
      "title": "FREE Origami TWITTER BIRD"
    },
    "generator": "Sketchfab-3.18.7",
    "version": "2.0"
  },
  "bufferViews": [
    {
      "buffer": 0,
      "byteLength": 16524,
      "byteOffset": 0,
      "name": "floatBufferViews",
      "target": 34963
    },
    {
      "buffer": 0,
      "byteLength": 31320,
      "byteOffset": 16524,
      "byteStride": 12,
      "name": "floatBufferViews",
      "target": 34962
    },
    {
      "buffer": 0,
      "byteLength": 20880,
      "byteOffset": 47844,
      "byteStride": 16,
      "name": "floatBufferViews",
      "target": 34962
    }
  ],
  "buffers": [
    {
      "byteLength": 68724,
      "uri": "scene.bin"
    }
  ],
  "materials": [
    {
      "doubleSided": true,
      "emissiveFactor": [
        0,
        0,
        0
      ],
      "name": "initialShadingGroup",
      "pbrMetallicRoughness": {
        "baseColorFactor": [
          0.0013699005,
          0.58930263540000005,
          1,
          1
        ],
        "metallicFactor": 1,
        "roughnessFactor": 0.81000000000000005
      }
    }
  ],
  "meshes": [
    {
      "primitives": [
        {
          "attributes": {
            "NORMAL": 1,
            "POSITION": 0,
            "TANGENT": 2
          },
          "indices": 3,
          "material": 0,
          "mode": 4
        }
      ]
    }
  ],
  "nodes": [
    {
      "children": [
        1
      ],
      "name": "RootNode (gltf orientation matrix)",
      "rotation": [
        -0.70710678118654746,
        -0,
        -0,
        0.70710678118654757
      ]
    },
    {
      "children": [
        2
      ],
      "matrix": [
        0.35633105039596558,
        0.93435978889465332,
        0,
        0,
        -0.93435978889465332,
        0.35633105039596558,
        0,
        0,
        0,
        0,
        1,
        0,
        0.03805108368396759,
        0.14201642572879791,
        0,
        1
      ],
      "name": "RootNode (model correction matrix)"
    },
    {
      "children": [
        3
      ],
      "matrix": [
        1,
        0,
        0,
        0,
        0,
        1,
        0,
        0,
        0,
        0,
        1,
        0,
        -5.5190000534057617,
        -10.159332275390625,
        -0.48053398728370667,
        1
      ],
      "name": "2e95e84637614cb885e62bce6e15f843.obj.cleaner.gles"
    },
    {
      "children": [
        4
      ],
      "name": ""
    },
    {
      "mesh": 0,
      "name": ""
    }
  ],
  "scene": 0,
  "scenes": [
    {
      "name": "OSG_Scene",
      "nodes": [
        0
      ]
    }
  ]
}

